<svg width="4144" height="4145" viewBox="0 0 4144 4145" fill="none" xmlns="http://www.w3.org/2000/svg">
<path d="M3034.8 2071.68C3034.8 2577.49 2926.93 3035.38 2752.56 3366.78C2578.18 3698.22 2337.41 3902.96 2071.68 3902.96C1805.95 3902.96 1565.18 3698.22 1390.8 3366.78C1216.44 3035.38 1108.57 2577.49 1108.57 2071.68C1108.57 1565.87 1216.44 1107.99 1390.8 776.582C1565.18 445.142 1805.95 240.407 2071.68 240.407C2337.41 240.407 2578.18 445.142 2752.56 776.582C2926.93 1107.99 3034.8 1565.87 3034.8 2071.68Z" stroke="#AAE9CA" stroke-opacity="0.4" stroke-width="1.59588"/>
<path d="M2071.33 3032.42C1565.52 3032.42 1107.64 2924.55 776.234 2750.19C444.793 2575.8 240.059 2335.04 240.059 2069.3C240.059 1803.57 444.793 1562.8 776.234 1388.42C1107.64 1214.06 1565.52 1106.19 2071.33 1106.19C2577.14 1106.19 3035.03 1214.06 3366.43 1388.42C3697.87 1562.8 3902.61 1803.57 3902.61 2069.3C3902.61 2335.04 3697.87 2575.8 3366.43 2750.19C3035.03 2924.55 2577.14 3032.42 2071.33 3032.42Z" stroke="#AAE9CA" stroke-opacity="0.4" stroke-width="1.59588"/>
<path d="M2750.64 1391.77C3108.3 1749.43 3355.8 2149.48 3466.85 2507.11C3577.9 2864.78 3552.42 3179.8 3364.52 3367.7C3176.62 3555.6 2861.6 3581.08 2503.93 3470.02C2146.3 3358.98 1746.25 3111.48 1388.59 2753.82C1030.93 2396.16 783.43 1996.11 672.385 1638.48C561.328 1280.81 586.807 965.789 774.709 777.887C962.611 589.985 1277.63 564.506 1635.3 675.563C1992.93 786.608 2392.98 1034.11 2750.64 1391.77Z" stroke="#AAE9CA" stroke-opacity="0.4" stroke-width="1.59588"/>
<path d="M2751.08 2750.85C2393.42 3108.51 1993.37 3356.01 1635.74 3467.05C1278.07 3578.11 963.054 3552.63 775.152 3364.73C587.25 3176.83 561.77 2861.81 672.828 2504.14C783.873 2146.51 1031.37 1746.46 1389.03 1388.8C1746.69 1031.13 2146.74 783.636 2504.37 672.591C2862.04 561.534 3177.06 587.013 3364.96 774.915C3552.87 962.817 3578.35 1277.83 3467.29 1635.5C3356.24 1993.14 3108.74 2393.18 2751.08 2750.85Z" stroke="#AAE9CA" stroke-opacity="0.4" stroke-width="1.59588"/>
<path d="M2439.07 1183.94C2906.37 1377.5 3288.13 1652.39 3527.58 1940.3C3767.06 2228.24 3864.07 2529.03 3762.38 2774.54C3660.68 3020.04 3379.4 3164.14 3006.45 3198.41C2633.55 3232.67 2169.24 3157.11 1701.93 2963.54C1234.62 2769.98 852.872 2495.09 613.421 2207.18C373.942 1919.24 276.931 1618.45 378.622 1372.94C480.314 1127.44 761.602 983.344 1134.55 949.073C1507.45 914.806 1971.76 990.373 2439.07 1183.94Z" stroke="#AAE9CA" stroke-opacity="0.4" stroke-width="1.59588"/>
<path d="M2959.56 2439.4C2765.99 2906.71 2491.11 3288.46 2203.2 3527.91C1915.25 3767.39 1614.46 3864.4 1368.96 3762.71C1123.45 3661.02 979.362 3379.73 945.091 3006.78C910.824 2633.88 986.391 2169.57 1179.96 1702.26C1373.52 1234.96 1648.4 853.204 1936.32 613.753C2224.26 374.274 2525.05 277.263 2770.56 378.954C3016.06 480.646 3160.15 761.934 3194.42 1134.88C3228.69 1507.78 3153.12 1972.09 2959.56 2439.4Z" stroke="#AAE9CA" stroke-opacity="0.4" stroke-width="1.59588"/>
<path d="M1704.7 1192.46C2172.01 998.893 2636.32 923.326 3009.23 957.593C3382.17 991.864 3663.46 1135.96 3765.15 1381.46C3866.84 1626.97 3769.83 1927.76 3530.35 2215.7C3290.9 2503.61 2909.15 2778.5 2441.84 2972.06C1974.53 3165.63 1510.22 3241.19 1137.32 3206.93C764.376 3172.66 483.088 3028.56 381.396 2783.06C279.704 2537.55 376.716 2236.76 616.195 1948.82C855.646 1660.91 1237.4 1386.02 1704.7 1192.46Z" stroke="#AAE9CA" stroke-opacity="0.4" stroke-width="1.59588"/>
<path d="M2959.82 1704.82C3153.39 2172.13 3228.95 2636.44 3194.69 3009.35C3160.42 3382.29 3016.32 3663.58 2770.82 3765.27C2525.31 3866.96 2224.53 3769.95 1936.58 3530.47C1648.67 3291.02 1373.78 2909.27 1180.22 2441.96C986.655 1974.65 911.088 1510.34 945.355 1137.44C979.626 764.496 1123.72 483.208 1369.22 381.516C1614.73 279.825 1915.52 376.837 2203.46 616.315C2491.37 855.766 2766.26 1237.52 2959.82 1704.82Z" stroke="#AAE9CA" stroke-opacity="0.4" stroke-width="1.59588"/>
<path d="M3033.69 2029.87C3055.75 2535.2 2967.96 2997.36 2808.22 3336.05C2648.46 3674.78 2416.85 3889.82 2151.37 3901.42C1885.89 3913.01 1636.42 3718.97 1447.75 3395.45C1259.1 3071.97 1131.36 2619.22 1109.29 2113.9C1087.23 1608.57 1175.02 1146.41 1334.76 807.718C1494.52 468.986 1726.13 253.945 1991.61 242.353C2257.09 230.762 2506.56 424.8 2695.23 748.319C2883.89 1071.8 3011.63 1524.55 3033.69 2029.87Z" stroke="#AAE9CA" stroke-opacity="0.4" stroke-width="1.59588"/>
<path d="M2113.26 3031.48C1607.93 3053.54 1145.78 2965.75 807.081 2806.01C468.349 2646.25 253.308 2414.64 241.717 2149.16C230.126 1883.68 424.163 1634.21 747.682 1445.54C1071.16 1256.89 1523.91 1129.15 2029.24 1107.08C2534.57 1085.02 2996.72 1172.82 3335.41 1332.56C3674.15 1492.31 3889.19 1723.92 3900.78 1989.4C3912.37 2254.88 3718.33 2504.35 3394.81 2693.03C3071.33 2881.68 2618.59 3009.42 2113.26 3031.48Z" stroke="#AAE9CA" stroke-opacity="0.4" stroke-width="1.59588"/>
<path d="M2720.52 1366.64C3093.45 1708.36 3358.16 2097.24 3484.7 2449.68C3611.25 2802.17 3599.54 3118 3420.01 3313.92C3240.48 3509.84 2926.88 3549.03 2564.7 3453.68C2202.57 3358.34 1792.1 3128.53 1419.18 2786.81C1046.26 2445.09 781.547 2056.22 655.008 1703.77C528.455 1351.28 540.17 1035.46 719.696 839.536C899.223 643.617 1212.83 604.421 1575 699.771C1937.14 795.111 2347.6 1024.92 2720.52 1366.64Z" stroke="#AAE9CA" stroke-opacity="0.4" stroke-width="1.59588"/>
<path d="M2786.6 2720.71C2444.88 3093.63 2056 3358.34 1703.56 3484.88C1351.07 3611.43 1035.24 3599.72 839.323 3420.19C643.404 3240.66 604.208 2927.06 699.558 2564.88C794.898 2202.75 1024.71 1792.29 1366.43 1419.36C1708.15 1046.44 2097.02 781.729 2449.47 655.19C2801.96 528.637 3117.79 540.351 3313.7 719.878C3509.62 899.405 3548.82 1213.01 3453.47 1575.19C3358.13 1937.32 3128.32 2347.78 2786.6 2720.71Z" stroke="#AAE9CA" stroke-opacity="0.4" stroke-width="1.59588"/>
<path d="M2400.01 1168.73C2875.31 1341.73 3268.69 1599.7 3520.47 1876.89C3772.28 2154.12 3882.32 2450.39 3791.44 2700.09C3700.55 2949.8 3425.81 3106.03 3054.72 3156.53C2683.67 3207.03 2216.5 3151.79 1741.2 2978.79C1265.89 2805.8 872.512 2547.83 620.73 2270.63C368.92 1993.41 258.88 1697.14 349.766 1447.43C440.652 1197.72 715.387 1041.5 1086.48 990.991C1457.53 940.491 1924.7 995.733 2400.01 1168.73Z" stroke="#AAE9CA" stroke-opacity="0.4" stroke-width="1.59588"/>
<path d="M2979.26 2400.34C2806.27 2875.65 2548.3 3269.02 2271.1 3520.81C1993.88 3772.62 1697.61 3882.66 1447.9 3791.77C1198.19 3700.88 1041.97 3426.15 991.461 3055.05C940.961 2684 996.203 2216.84 1169.2 1741.53C1342.2 1266.23 1600.17 872.847 1877.36 621.065C2154.59 369.255 2450.86 259.215 2700.56 350.101C2950.27 440.987 3106.5 715.722 3157 1086.82C3207.5 1457.87 3152.26 1925.03 2979.26 2400.34Z" stroke="#AAE9CA" stroke-opacity="0.4" stroke-width="1.59588"/>
<path d="M1666.5 1209.48C2124.92 995.716 2585.49 899.968 2959.54 917.936C3333.62 935.907 3620.92 1067.59 3733.23 1308.43C3845.53 1549.26 3761.73 1854 3535.04 2152.12C3308.38 2450.2 2938.98 2741.47 2480.56 2955.24C2022.14 3169 1561.57 3264.75 1187.53 3246.78C813.442 3228.81 526.136 3097.12 413.833 2856.29C301.529 2615.45 385.328 2310.72 612.019 2012.6C838.684 1714.52 1208.08 1423.24 1666.5 1209.48Z" stroke="#AAE9CA" stroke-opacity="0.4" stroke-width="1.59588"/>
<path d="M2942.78 1666.63C3156.54 2125.05 3252.29 2585.62 3234.32 2959.67C3216.35 3333.75 3084.67 3621.06 2843.83 3733.36C2602.99 3845.66 2298.26 3761.86 2000.14 3535.17C1702.06 3308.51 1410.79 2939.11 1197.02 2480.69C983.257 2022.27 887.509 1561.7 905.478 1187.66C923.448 813.573 1055.13 526.267 1295.97 413.964C1536.81 301.66 1841.54 385.459 2139.66 612.15C2437.74 838.815 2729.01 1208.21 2942.78 1666.63Z" stroke="#AAE9CA" stroke-opacity="0.4" stroke-width="1.59588"/>
<path d="M3030.74 1988.15C3074.83 2492.04 3007.27 2957.58 2862.46 3302.92C2717.63 3648.3 2495.62 3873.24 2230.9 3896.4C1966.18 3919.56 1708.48 3736.59 1505.88 3421.61C1303.29 3106.66 1155.93 2659.92 1111.84 2156.03C1067.76 1652.15 1135.31 1186.6 1280.12 841.264C1424.96 495.886 1646.96 270.947 1911.69 247.786C2176.41 224.626 2434.1 407.597 2636.71 722.578C2839.29 1037.52 2986.66 1484.27 3030.74 1988.15Z" stroke="#AAE9CA" stroke-opacity="0.4" stroke-width="1.59588"/>
<path d="M2164.65 3031.09C1660.77 3075.18 1195.23 3007.63 849.886 2862.81C504.508 2717.98 279.568 2495.97 256.408 2231.25C233.248 1966.53 416.219 1708.83 731.2 1506.23C1046.15 1303.65 1492.89 1156.28 1996.77 1112.2C2500.66 1068.11 2966.2 1135.66 3311.54 1280.48C3656.92 1425.31 3881.86 1647.32 3905.02 1912.04C3928.18 2176.76 3745.21 2434.46 3430.23 2637.06C3115.28 2839.64 2668.54 2987.01 2164.65 3031.09Z" stroke="#AAE9CA" stroke-opacity="0.4" stroke-width="1.59588"/>
<path d="M2688.84 1335.12C3076.31 1660.25 3357.74 2037.2 3499.53 2383.79C3641.34 2730.42 3643.41 3046.46 3472.6 3250.03C3301.79 3453.59 2990.19 3506.43 2624.2 3426.97C2258.25 3347.51 1838.16 3135.82 1450.68 2810.69C1063.21 2485.57 781.787 2108.61 639.995 1762.02C498.187 1415.39 496.114 1099.35 666.924 895.785C837.734 692.221 1149.33 639.383 1515.32 718.845C1881.27 798.298 2301.37 1009.99 2688.84 1335.12Z" stroke="#AAE9CA" stroke-opacity="0.4" stroke-width="1.59588"/>
<path d="M2814.01 2689.1C2488.89 3076.57 2111.93 3357.99 1765.34 3499.78C1418.71 3641.59 1102.67 3643.67 899.105 3472.86C695.542 3302.05 642.704 2990.45 722.165 2624.46C801.618 2258.51 1013.31 1838.41 1338.44 1450.94C1663.57 1063.47 2040.52 782.044 2387.11 640.252C2733.74 498.444 3049.78 496.371 3253.35 667.181C3456.91 837.991 3509.75 1149.59 3430.29 1515.58C3350.83 1881.53 3139.14 2301.62 2814.01 2689.1Z" stroke="#AAE9CA" stroke-opacity="0.4" stroke-width="1.59588"/>
<path d="M2360.32 1155.24C2842.72 1307.34 3246.98 1547.91 3510.61 1813.86C3774.28 2079.83 3897.13 2371.02 3817.23 2624.46C3737.32 2877.89 3469.66 3045.95 3101.12 3112.6C2732.62 3179.23 2263.49 3144.42 1781.09 2992.32C1298.7 2840.22 894.439 2599.66 630.806 2333.71C367.143 2067.73 244.284 1776.54 324.192 1523.11C404.099 1269.67 671.758 1101.61 1040.3 1034.97C1408.79 968.333 1877.92 1003.14 2360.32 1155.24Z" stroke="#AAE9CA" stroke-opacity="0.4" stroke-width="1.59588"/>
<path d="M2992.54 2360.63C2840.44 2843.03 2599.87 3247.29 2333.92 3510.92C2067.95 3774.59 1776.76 3897.45 1523.32 3817.54C1269.89 3737.63 1101.83 3469.97 1035.18 3101.43C968.548 2732.94 1003.36 2263.81 1155.46 1781.41C1307.56 1299.01 1548.13 894.751 1814.07 631.118C2080.05 367.454 2371.24 244.596 2624.67 324.504C2878.11 404.411 3046.17 672.07 3112.81 1040.61C3179.45 1409.11 3144.64 1878.24 2992.54 2360.63Z" stroke="#AAE9CA" stroke-opacity="0.4" stroke-width="1.59588"/>
<path d="M1629.08 1228.17C2077.74 994.615 2533.69 878.868 2908.16 880.504C3282.68 882.14 3575.45 1001.17 3698.15 1236.88C3820.86 1472.58 3750.43 1780.68 3536.96 2088.4C3323.51 2396.09 2967.17 2703.2 2518.51 2936.76C2069.85 3170.31 1613.89 3286.06 1239.42 3284.43C864.912 3282.79 572.136 3163.76 449.434 2928.05C326.732 2692.34 397.159 2384.24 610.63 2076.52C824.078 1768.84 1180.42 1461.73 1629.08 1228.17Z" stroke="#AAE9CA" stroke-opacity="0.4" stroke-width="1.59588"/>
<path d="M2924.08 1629.22C3157.64 2077.88 3273.39 2533.84 3271.75 2908.31C3270.11 3282.82 3151.09 3575.59 2915.38 3698.3C2679.67 3821 2371.57 3750.57 2063.85 3537.1C1756.16 3323.65 1449.05 2967.31 1215.5 2518.65C981.939 2069.99 866.192 1614.04 867.828 1239.57C869.464 865.053 988.492 572.278 1224.2 449.576C1459.91 326.874 1768.01 397.301 2075.73 610.772C2383.42 824.219 2690.52 1180.56 2924.08 1629.22Z" stroke="#AAE9CA" stroke-opacity="0.4" stroke-width="1.59588"/>
<path d="M3023.79 1945.64C3089.81 2447.12 3042.63 2915.17 2913.02 3266.49C2783.39 3617.86 2571.4 3852.27 2307.94 3886.96C2044.48 3921.64 1779.05 3750.08 1562.9 3444.24C1346.77 3138.43 1180.06 2698.54 1114.04 2197.06C1048.02 1695.58 1095.2 1227.53 1224.81 876.202C1354.44 524.835 1566.42 290.426 1829.88 255.741C2093.34 221.056 2358.77 392.612 2574.93 698.456C2791.05 1004.27 2957.77 1444.15 3023.79 1945.64Z" stroke="#AAE9CA" stroke-opacity="0.4" stroke-width="1.59588"/>
<path d="M2196.78 3024.14C1695.3 3090.16 1227.25 3042.98 875.924 2913.36C524.557 2783.73 290.148 2571.75 255.463 2308.29C220.777 2044.83 392.334 1779.4 698.177 1563.25C1003.99 1347.12 1443.88 1180.41 1945.36 1114.39C2446.84 1048.36 2914.89 1095.54 3266.22 1225.16C3617.58 1354.79 3851.99 1566.77 3886.68 1830.23C3921.36 2093.69 3749.81 2359.12 3443.96 2575.27C3138.15 2791.4 2698.26 2958.11 2196.78 3024.14Z" stroke="#AAE9CA" stroke-opacity="0.4" stroke-width="1.59588"/>
<path d="M2656.21 1313.17C3057.5 1621.09 3355.1 1985.41 3511.87 2325.49C3668.67 2665.6 3684.52 2981.25 3522.75 3192.07C3360.99 3402.89 3051.99 3469.27 2682.88 3405.85C2313.82 3342.44 1884.89 3149.27 1483.6 2841.35C1082.31 2533.44 784.716 2169.11 627.941 1829.04C471.148 1488.92 455.292 1173.27 617.06 962.454C778.828 751.634 1087.82 685.254 1456.93 748.676C1826 812.091 2254.93 1005.26 2656.21 1313.17Z" stroke="#AAE9CA" stroke-opacity="0.4" stroke-width="1.59588"/>
<path d="M2840.05 2656.32C2532.13 3057.61 2167.81 3355.21 1827.73 3511.98C1487.62 3668.78 1171.97 3684.63 961.147 3522.86C750.326 3361.1 683.947 3052.1 747.369 2682.99C810.784 2313.93 1003.95 1885 1311.87 1483.71C1619.78 1082.42 1984.1 784.826 2324.18 628.051C2664.3 471.258 2979.94 455.402 3190.76 617.17C3401.59 778.938 3467.96 1087.93 3404.54 1457.04C3341.13 1826.11 3147.96 2255.04 2840.05 2656.32Z" stroke="#AAE9CA" stroke-opacity="0.4" stroke-width="1.59588"/>
<path d="M2320.09 1143.49C2808.67 1274.41 3223.03 1497.11 3498.02 1751.3C3773.03 2005.53 3908.47 2291.08 3839.7 2547.76C3770.92 2804.44 3510.85 2984.01 3145.56 3066.67C2780.33 3149.32 2310.12 3135 1821.55 3004.09C1332.97 2873.17 918.609 2650.47 643.626 2396.28C368.612 2142.05 233.169 1856.5 301.946 1599.82C370.722 1343.14 630.796 1163.57 996.076 1080.91C1361.32 998.265 1831.52 1012.58 2320.09 1143.49Z" stroke="#AAE9CA" stroke-opacity="0.4" stroke-width="1.59588"/>
<path d="M3004.06 2320.39C2873.14 2808.97 2650.44 3223.33 2396.25 3498.32C2142.02 3773.33 1856.47 3908.77 1599.79 3840C1343.11 3771.22 1163.54 3511.14 1080.88 3145.86C998.234 2780.62 1012.55 2310.42 1143.46 1821.85C1274.38 1333.27 1497.08 918.909 1751.27 643.926C2005.5 368.912 2291.05 233.469 2547.73 302.246C2804.41 371.023 2983.98 631.096 3066.64 996.376C3149.29 1361.62 3134.97 1831.82 3004.06 2320.39Z" stroke="#AAE9CA" stroke-opacity="0.4" stroke-width="1.59588"/>
<path d="M1592.51 1248.49C2030.56 995.588 2481.03 860.063 2855.22 845.363C3229.44 830.661 3527.13 936.805 3660 1166.94C3792.87 1397.07 3735.95 1707.95 3536.1 2024.69C3336.28 2341.39 2993.67 2663.75 2555.63 2916.66C2117.58 3169.56 1667.11 3305.09 1292.92 3319.79C918.696 3334.49 621.007 3228.34 488.14 2998.21C355.273 2768.08 412.195 2457.2 612.04 2140.46C811.863 1823.76 1154.47 1501.4 1592.51 1248.49Z" stroke="#AAE9CA" stroke-opacity="0.4" stroke-width="1.59588"/>
<path d="M2903.77 1592.66C3156.68 2030.7 3292.2 2481.18 3306.9 2855.36C3321.6 3229.59 3215.46 3527.28 2985.33 3660.14C2755.19 3793.01 2444.32 3736.09 2127.58 3536.25C1810.87 3336.42 1488.51 2993.82 1235.61 2555.77C982.703 2117.73 847.178 1667.25 832.478 1293.07C817.777 918.841 923.921 621.152 1154.05 488.286C1384.18 355.419 1695.06 412.34 2011.8 612.185C2328.51 812.008 2650.87 1154.61 2903.77 1592.66Z" stroke="#AAE9CA" stroke-opacity="0.4" stroke-width="1.59588"/>
<path d="M3019.42 1905.29C3107.25 2403.41 3080.53 2873.07 2966.37 3229.72C2852.19 3586.41 2650.63 3829.84 2388.93 3875.98C2127.24 3922.13 1854.57 3762.31 1625.29 3466.19C1396.03 3170.1 1210.29 2737.9 1122.45 2239.77C1034.62 1741.65 1061.34 1271.99 1175.5 915.341C1289.68 558.655 1491.24 315.222 1752.94 269.078C2014.63 222.934 2287.3 382.749 2516.58 678.873C2745.84 974.965 2931.58 1407.16 3019.42 1905.29Z" stroke="#AAE9CA" stroke-opacity="0.4" stroke-width="1.59588"/>
<path d="M2238.23 3017.74C1740.11 3105.57 1270.44 3078.85 913.798 2964.69C557.112 2850.51 313.679 2648.95 267.535 2387.26C221.391 2125.56 381.206 1852.9 677.33 1623.61C973.421 1394.35 1405.62 1208.61 1903.74 1120.78C2401.87 1032.94 2871.53 1059.66 3228.18 1173.83C3584.86 1288.01 3828.3 1489.56 3874.44 1751.26C3920.58 2012.96 3760.77 2285.62 3464.65 2514.91C3168.55 2744.17 2736.36 2929.91 2238.23 3017.74Z" stroke="#AAE9CA" stroke-opacity="0.4" stroke-width="1.59588"/>
<path d="M2622.38 1288.61C3036.72 1578.73 3349.92 1929.73 3521.38 2262.64C3692.86 2595.59 3722.47 2910.25 3570.06 3127.93C3417.64 3345.6 3111.83 3425.4 2740.31 3378.14C2368.83 3330.88 1931.88 3156.61 1517.54 2866.49C1103.21 2576.37 790.002 2225.37 618.542 1892.46C447.063 1559.51 417.453 1244.85 569.871 1027.18C722.29 809.499 1028.1 729.705 1399.62 776.966C1771.1 824.222 2208.05 998.493 2622.38 1288.61Z" stroke="#AAE9CA" stroke-opacity="0.4" stroke-width="1.59588"/>
<path d="M2864.6 2622.45C2574.48 3036.79 2223.49 3349.99 1890.57 3521.45C1557.62 3692.93 1242.97 3722.54 1025.29 3570.12C807.613 3417.71 727.819 3111.9 775.08 2740.38C822.336 2368.9 996.607 1931.95 1286.73 1517.61C1576.85 1103.28 1927.84 790.072 2260.76 618.612C2593.71 447.133 2908.36 417.523 3126.04 569.941C3343.72 722.36 3423.51 1028.17 3376.25 1399.69C3328.99 1771.17 3154.72 2208.12 2864.6 2622.45Z" stroke="#AAE9CA" stroke-opacity="0.4" stroke-width="1.59588"/>
<path d="M2279.57 1140.06C2773.39 1249.54 3197.07 1453.96 3482.88 1695.92C3768.72 1937.9 3916.49 2217.27 3858.98 2476.71C3801.46 2736.14 3549.47 2926.89 3188.14 3025.4C2826.86 3123.9 2356.48 3130.11 1862.66 3020.63C1368.84 2911.16 945.153 2706.74 659.344 2464.78C373.503 2222.8 225.733 1943.42 283.248 1683.99C340.763 1424.55 592.756 1233.81 954.084 1135.29C1315.37 1036.79 1785.75 1030.59 2279.57 1140.06Z" stroke="#AAE9CA" stroke-opacity="0.4" stroke-width="1.59588"/>
<path d="M3013.82 2279.68C2904.34 2773.5 2699.92 3197.19 2457.96 3483C2215.98 3768.84 1936.61 3916.61 1677.17 3859.09C1417.74 3801.58 1226.99 3549.59 1128.48 3188.26C1029.98 2826.97 1023.77 2356.59 1133.25 1862.77C1242.72 1368.95 1447.14 945.268 1689.1 659.458C1931.08 373.617 2210.46 225.848 2469.89 283.363C2729.33 340.878 2920.07 592.871 3018.59 954.198C3117.09 1315.49 3123.29 1785.86 3013.82 2279.68Z" stroke="#AAE9CA" stroke-opacity="0.4" stroke-width="1.59588"/>
<path d="M1556.86 1270.38C1983.46 998.611 2427.59 843.566 2800.78 812.558C3174.01 781.547 3476.05 874.605 3618.83 1098.72C3761.6 1322.84 3718.3 1635.9 3532.46 1961.06C3346.64 2286.18 3018.42 2623.18 2591.83 2894.95C2165.23 3166.72 1721.09 3321.76 1347.91 3352.77C974.677 3383.78 672.642 3290.73 529.863 3066.61C387.085 2842.49 430.392 2529.43 616.231 2204.27C802.049 1879.15 1130.27 1542.15 1556.86 1270.38Z" stroke="#AAE9CA" stroke-opacity="0.4" stroke-width="1.59588"/>
<path d="M2881.2 1554.41C3152.97 1981 3308.02 2425.14 3339.02 2798.33C3370.03 3171.56 3276.98 3473.59 3052.86 3616.37C2828.74 3759.15 2515.68 3715.84 2190.52 3530C1865.4 3344.18 1528.4 3015.97 1256.63 2589.37C984.862 2162.77 829.816 1718.64 798.809 1345.45C767.798 972.222 860.856 670.186 1084.97 527.408C1309.09 384.629 1622.16 427.936 1947.31 613.775C2272.43 799.594 2609.43 1127.81 2881.2 1554.41Z" stroke="#AAE9CA" stroke-opacity="0.4" stroke-width="1.59588"/>
<path d="M3011.05 1864.31C3120.53 2358.13 3114.32 2828.51 3015.82 3189.79C2917.31 3551.12 2726.56 3803.11 2467.12 3860.63C2207.69 3918.14 1928.32 3770.38 1686.33 3484.53C1444.37 3198.72 1239.96 2775.04 1130.48 2281.22C1021 1787.4 1027.21 1317.02 1125.71 955.734C1224.22 594.406 1414.97 342.413 1674.4 284.898C1933.84 227.383 2213.21 375.153 2455.2 660.994C2697.15 946.803 2901.57 1370.49 3011.05 1864.31Z" stroke="#AAE9CA" stroke-opacity="0.4" stroke-width="1.59588"/>
<path d="M2279.37 3009.54C1785.55 3119.02 1315.17 3112.81 953.887 3014.31C592.559 2915.8 340.566 2725.05 283.051 2465.62C225.536 2206.18 373.306 1926.81 659.147 1684.82C944.956 1442.87 1368.64 1238.45 1862.46 1128.97C2356.28 1019.49 2826.66 1025.7 3187.95 1124.2C3549.27 1222.71 3801.27 1413.46 3858.78 1672.9C3916.3 1932.33 3768.53 2211.7 3482.69 2453.69C3196.88 2695.65 2773.19 2900.06 2279.37 3009.54Z" stroke="#AAE9CA" stroke-opacity="0.4" stroke-width="1.59588"/>
<path d="M2587.48 1260.75C3014.08 1532.53 3342.29 1869.52 3528.11 2194.64C3713.95 2519.8 3757.26 2832.86 3614.48 3056.98C3471.7 3281.1 3169.67 3374.16 2796.44 3343.14C2423.25 3312.14 1979.11 3157.09 1552.52 2885.32C1125.92 2613.55 797.704 2276.55 611.885 1951.43C426.046 1626.28 382.739 1313.21 525.518 1089.09C668.296 864.977 970.332 771.919 1343.56 802.93C1716.75 833.938 2160.88 988.983 2587.48 1260.75Z" stroke="#AAE9CA" stroke-opacity="0.4" stroke-width="1.59588"/>
<path d="M2882.07 2587.52C2610.3 3014.11 2273.3 3342.33 1948.18 3528.15C1623.02 3713.99 1309.96 3757.3 1085.84 3614.52C861.725 3471.74 768.667 3169.71 799.678 2796.48C830.686 2423.29 985.731 1979.15 1257.5 1552.56C1529.27 1125.96 1866.27 797.743 2191.39 611.925C2516.55 426.086 2829.61 382.779 3053.73 525.557C3277.85 668.336 3370.9 970.371 3339.89 1343.6C3308.88 1716.79 3153.84 2160.92 2882.07 2587.52Z" stroke="#AAE9CA" stroke-opacity="0.4" stroke-width="1.59588"/>
<path d="M2238.55 1132.09C2736.67 1219.92 3168.87 1405.67 3464.96 1634.93C3761.09 1864.21 3920.9 2136.88 3874.76 2398.57C3828.61 2660.27 3585.18 2861.83 3228.49 2976C2871.85 3090.17 2402.19 3116.89 1904.06 3029.06C1405.94 2941.22 973.739 2755.48 677.647 2526.22C381.523 2296.94 221.708 2024.27 267.852 1762.58C313.996 1500.88 557.429 1299.32 914.115 1185.14C1270.76 1070.98 1740.42 1044.26 2238.55 1132.09Z" stroke="#AAE9CA" stroke-opacity="0.4" stroke-width="1.59588"/>
<path d="M3018.19 2238.35C2930.36 2736.47 2744.62 3168.67 2515.36 3464.76C2286.07 3760.89 2013.41 3920.7 1751.71 3874.56C1490.01 3828.41 1288.46 3584.98 1174.28 3228.29C1060.11 2871.65 1033.39 2401.99 1121.23 1903.86C1209.06 1405.74 1394.8 973.538 1624.06 677.447C1853.35 381.323 2126.01 221.508 2387.71 267.652C2649.4 313.796 2850.96 557.229 2965.14 913.915C3079.3 1270.56 3106.02 1740.22 3018.19 2238.35Z" stroke="#AAE9CA" stroke-opacity="0.4" stroke-width="1.59588"/>
<path d="M1519.38 1283.99C1933.72 993.869 2370.67 819.599 2742.15 772.342C3113.67 725.081 3419.48 804.876 3571.89 1022.55C3724.31 1240.23 3694.7 1554.88 3523.22 1887.84C3351.76 2220.75 3038.56 2571.74 2624.22 2861.86C2209.89 3151.99 1772.94 3326.26 1401.46 3373.51C1029.94 3420.77 724.129 3340.98 571.711 3123.3C419.292 2905.63 448.902 2590.97 620.381 2258.02C791.841 1925.1 1105.05 1574.11 1519.38 1283.99Z" stroke="#AAE9CA" stroke-opacity="0.4" stroke-width="1.59588"/>
<path d="M2858.47 1522.37C3148.59 1936.7 3322.86 2373.65 3370.12 2745.13C3417.38 3116.65 3337.59 3422.46 3119.91 3574.88C2902.23 3727.3 2587.58 3697.69 2254.63 3526.21C1921.71 3354.75 1570.72 3041.54 1280.6 2627.21C990.476 2212.87 816.205 1775.92 768.949 1404.44C721.687 1032.92 801.482 727.112 1019.16 574.694C1236.83 422.276 1551.49 451.886 1884.44 623.365C2217.36 794.825 2568.35 1108.03 2858.47 1522.37Z" stroke="#AAE9CA" stroke-opacity="0.4" stroke-width="1.59588"/>
<path d="M3000.91 1823.73C3131.82 2312.31 3146.14 2782.51 3063.49 3147.75C2980.83 3513.03 2801.26 3773.1 2544.58 3841.88C2287.9 3910.65 2002.35 3775.21 1748.13 3500.2C1493.93 3225.21 1271.23 2810.85 1140.32 2322.28C1009.4 1833.7 995.086 1363.5 1077.73 998.259C1160.39 632.978 1339.97 372.905 1596.64 304.128C1853.32 235.351 2138.88 370.794 2393.1 645.808C2647.29 920.791 2870 1335.16 3000.91 1823.73Z" stroke="#AAE9CA" stroke-opacity="0.4" stroke-width="1.59588"/>
<path d="M2329.1 3001.22C1840.52 3132.14 1370.32 3146.45 1005.08 3063.8C639.799 2981.15 379.725 2801.57 310.948 2544.89C242.172 2288.21 377.615 2002.66 652.628 1748.44C927.612 1494.24 1341.98 1271.54 1830.55 1140.63C2319.13 1009.71 2789.33 995.399 3154.57 1078.05C3519.85 1160.7 3779.92 1340.28 3848.7 1596.96C3917.48 1853.63 3782.03 2139.19 3507.02 2393.41C3232.04 2647.61 2817.67 2870.31 2329.1 3001.22Z" stroke="#AAE9CA" stroke-opacity="0.4" stroke-width="1.59588"/>
<path d="M2551.64 1243.99C2989.68 1496.9 3332.29 1819.26 3532.11 2135.96C3731.96 2452.7 3788.88 2763.58 3656.01 2993.71C3523.15 3223.84 3225.46 3329.98 2851.23 3315.28C2477.04 3300.58 2026.57 3165.06 1588.53 2912.15C1150.48 2659.25 807.876 2336.89 608.053 2020.18C408.207 1703.44 351.286 1392.57 484.153 1162.43C617.02 932.303 914.709 826.159 1288.94 840.86C1663.12 855.56 2113.6 991.085 2551.64 1243.99Z" stroke="#AAE9CA" stroke-opacity="0.4" stroke-width="1.59588"/>
<path d="M2903.82 2551.66C2650.92 2989.7 2328.56 3332.31 2011.85 3532.13C1695.11 3731.97 1384.24 3788.9 1154.1 3656.03C923.972 3523.16 817.828 3225.47 832.529 2851.25C847.229 2477.06 982.754 2026.59 1235.66 1588.54C1488.56 1150.5 1810.92 807.892 2127.63 608.069C2444.37 408.223 2755.25 351.302 2985.38 484.169C3215.51 617.035 3321.65 914.724 3306.95 1288.95C3292.25 1663.14 3156.73 2113.61 2903.82 2551.66Z" stroke="#AAE9CA" stroke-opacity="0.4" stroke-width="1.59588"/>
<path d="M2196.87 1118.91C2698.35 1184.93 3138.24 1351.64 3444.05 1567.77C3749.89 1783.92 3921.45 2049.35 3886.76 2312.81C3852.08 2576.27 3617.67 2788.26 3266.3 2917.89C2914.97 3047.5 2446.93 3094.68 1945.44 3028.66C1443.96 2962.64 1004.07 2795.92 698.262 2579.8C392.418 2363.65 220.862 2098.21 255.547 1834.75C290.232 1571.29 524.641 1359.31 876.008 1229.68C1227.34 1100.07 1695.38 1052.89 2196.87 1118.91Z" stroke="#AAE9CA" stroke-opacity="0.4" stroke-width="1.59588"/>
<path d="M3027.96 2197.19C2961.94 2698.67 2795.23 3138.56 2579.1 3444.37C2362.95 3750.21 2097.52 3921.77 1834.06 3887.08C1570.6 3852.4 1358.61 3617.99 1228.98 3266.62C1099.37 2915.29 1052.19 2447.25 1118.21 1945.76C1184.23 1444.28 1350.94 1004.39 1567.07 698.584C1783.22 392.74 2048.65 221.183 2312.11 255.869C2575.57 290.554 2787.56 524.963 2917.19 876.33C3046.8 1227.66 3093.98 1695.7 3027.96 2197.19Z" stroke="#AAE9CA" stroke-opacity="0.4" stroke-width="1.59588"/>
<path d="M1488.58 1318.7C1889.87 1010.79 2318.8 817.622 2687.86 754.207C3056.97 690.785 3365.97 757.165 3527.74 967.985C3689.5 1178.81 3673.65 1494.45 3516.86 1834.57C3360.08 2174.65 3062.48 2538.97 2661.2 2846.88C2259.91 3154.8 1830.98 3347.97 1461.91 3411.38C1092.81 3474.8 783.81 3408.42 622.041 3197.6C460.273 2986.78 476.13 2671.13 632.923 2331.02C789.698 1990.94 1087.3 1626.62 1488.58 1318.7Z" stroke="#AAE9CA" stroke-opacity="0.4" stroke-width="1.59588"/>
<path d="M2833.08 1485.75C3141 1887.03 3334.17 2315.97 3397.58 2685.03C3461 3054.14 3394.62 3363.13 3183.8 3524.9C2972.98 3686.67 2657.34 3670.81 2317.22 3514.02C1977.14 3357.25 1612.82 3059.65 1304.9 2658.36C996.987 2257.08 803.823 1828.14 740.408 1459.08C676.986 1089.97 743.366 780.976 954.186 619.208C1165.01 457.439 1480.65 473.296 1820.77 630.089C2160.85 786.864 2525.17 1084.46 2833.08 1485.75Z" stroke="#AAE9CA" stroke-opacity="0.4" stroke-width="1.59588"/>
<path d="M2989.01 1783.63C3141.11 2266.03 3175.92 2735.16 3109.28 3103.65C3042.64 3472.19 2874.58 3739.85 2621.14 3819.76C2367.71 3899.67 2076.52 3776.81 1810.54 3513.14C1544.6 3249.51 1304.03 2845.25 1151.93 2362.85C999.831 1880.46 965.019 1411.33 1031.66 1042.83C1098.3 674.29 1266.36 406.631 1519.79 326.723C1773.23 246.816 2064.42 369.674 2330.4 633.337C2596.34 896.971 2836.91 1301.23 2989.01 1783.63Z" stroke="#AAE9CA" stroke-opacity="0.4" stroke-width="1.59588"/>
<path d="M2369.19 2989.32C1886.79 3141.42 1417.66 3176.23 1049.16 3109.59C680.623 3042.95 412.964 2874.89 333.057 2621.45C253.149 2368.02 376.008 2076.83 639.671 1810.85C903.304 1544.9 1307.56 1304.34 1789.96 1152.24C2272.36 1000.14 2741.49 965.326 3109.99 1031.96C3478.52 1098.61 3746.18 1266.67 3826.09 1520.1C3906 1773.54 3783.14 2064.73 3519.48 2330.7C3255.84 2596.65 2851.59 2837.22 2369.19 2989.32Z" stroke="#AAE9CA" stroke-opacity="0.4" stroke-width="1.59588"/>
<path d="M2514.87 1218.82C2963.53 1452.38 3319.87 1759.49 3533.32 2067.17C3746.79 2374.89 3817.22 2682.99 3694.51 2918.7C3571.81 3154.41 3279.04 3273.44 2904.52 3275.07C2530.05 3276.71 2074.1 3160.96 1625.44 2927.41C1176.78 2693.85 820.437 2386.74 606.989 2079.05C393.518 1771.33 323.091 1463.23 445.793 1227.52C568.495 991.816 861.271 872.788 1235.78 871.151C1610.25 869.515 2066.21 985.262 2514.87 1218.82Z" stroke="#AAE9CA" stroke-opacity="0.4" stroke-width="1.59588"/>
<path d="M2929.15 2514.87C2695.59 2963.53 2388.48 3319.87 2080.79 3533.32C1773.07 3746.79 1464.97 3817.21 1229.27 3694.51C993.557 3571.81 874.529 3279.04 872.893 2904.52C871.257 2530.05 987.004 2074.09 1220.56 1625.44C1454.12 1176.78 1761.23 820.437 2068.91 606.989C2376.63 393.518 2684.73 323.091 2920.44 445.793C3156.15 568.495 3275.18 861.271 3276.81 1235.78C3278.45 1610.25 3162.7 2066.21 2929.15 2514.87Z" stroke="#AAE9CA" stroke-opacity="0.4" stroke-width="1.59588"/>
<path d="M2155.62 1121.52C2659.5 1165.6 3106.24 1312.97 3421.19 1515.55C3736.17 1718.16 3919.14 1975.85 3895.98 2240.58C3872.82 2505.3 3647.88 2727.31 3302.5 2872.14C2957.17 3016.95 2491.62 3084.5 1987.74 3040.42C1483.85 2996.34 1037.11 2848.97 722.163 2646.39C407.182 2443.78 224.211 2186.09 247.371 1921.36C270.531 1656.64 495.471 1434.63 840.848 1289.8C1186.19 1144.99 1651.73 1077.44 2155.62 1121.52Z" stroke="#AAE9CA" stroke-opacity="0.4" stroke-width="1.59588"/>
<path d="M3032.32 2155.56C2988.23 2659.44 2840.87 3106.18 2638.28 3421.13C2435.68 3736.11 2177.98 3919.08 1913.26 3895.92C1648.54 3872.76 1426.53 3647.82 1281.7 3302.44C1136.89 2957.1 1069.33 2491.56 1113.42 1987.67C1157.5 1483.79 1304.87 1037.05 1507.45 722.101C1710.06 407.12 1967.75 224.149 2232.47 247.309C2497.2 270.469 2719.2 495.409 2864.03 840.787C3008.85 1186.13 3076.4 1651.67 3032.32 2155.56Z" stroke="#AAE9CA" stroke-opacity="0.4" stroke-width="1.59588"/>
<path d="M1456.1 1345.05C1843.57 1019.92 2263.67 808.231 2629.62 728.778C2995.6 649.316 3307.2 702.154 3478.01 905.718C3648.82 1109.28 3646.75 1425.32 3504.94 1771.95C3363.15 2118.54 3081.73 2495.5 2694.25 2820.63C2306.78 3145.76 1886.68 3357.45 1520.73 3436.9C1154.75 3516.36 843.148 3463.52 672.338 3259.96C501.528 3056.39 503.601 2740.36 645.409 2393.73C787.201 2047.13 1068.62 1670.18 1456.1 1345.05Z" stroke="#AAE9CA" stroke-opacity="0.4" stroke-width="1.59588"/>
<path d="M2806.82 1453.07C3131.95 1840.54 3343.64 2260.64 3423.09 2626.58C3502.55 2992.57 3449.71 3304.17 3246.15 3474.98C3042.59 3645.79 2726.55 3643.72 2379.92 3501.91C2033.32 3360.12 1656.37 3078.69 1331.24 2691.22C1006.11 2303.75 794.422 1883.65 714.969 1517.7C635.507 1151.71 688.345 840.116 891.909 669.306C1095.47 498.496 1411.51 500.569 1758.14 642.377C2104.73 784.169 2481.69 1065.59 2806.82 1453.07Z" stroke="#AAE9CA" stroke-opacity="0.4" stroke-width="1.59588"/>
<path d="M2974.02 1742.39C3147.02 2217.69 3202.26 2684.86 3151.76 3055.91C3101.26 3427.01 2945.03 3701.74 2695.33 3792.63C2445.62 3883.51 2149.35 3773.47 1872.12 3521.66C1594.93 3269.88 1336.96 2876.5 1163.96 2401.2C990.964 1925.89 935.722 1458.73 986.222 1087.67C1036.73 716.578 1192.95 441.843 1442.66 350.957C1692.37 260.071 1988.64 370.111 2265.86 621.921C2543.06 873.704 2801.03 1267.08 2974.02 1742.39Z" stroke="#AAE9CA" stroke-opacity="0.4" stroke-width="1.59588"/>
<path d="M2408.75 2975.66C1933.44 3148.65 1466.27 3203.9 1095.22 3153.4C724.127 3102.89 449.392 2946.67 358.506 2696.96C267.62 2447.25 377.66 2150.98 629.47 1873.75C881.253 1596.56 1274.63 1338.59 1749.94 1165.59C2225.24 992.596 2692.41 937.354 3063.46 987.855C3434.55 1038.36 3709.29 1194.59 3800.18 1444.29C3891.06 1694 3781.02 1990.27 3529.21 2267.5C3277.43 2544.69 2884.05 2802.66 2408.75 2975.66Z" stroke="#AAE9CA" stroke-opacity="0.4" stroke-width="1.59588"/>
<path d="M2477.27 1205.72C2935.69 1419.48 3305.09 1710.76 3531.76 2008.84C3758.45 2306.95 3842.25 2611.69 3729.94 2852.53C3617.64 3093.36 3330.33 3225.05 2956.25 3243.02C2582.21 3260.99 2121.63 3165.24 1663.21 2951.47C1204.79 2737.71 835.397 2446.44 608.732 2148.35C382.041 1850.24 298.242 1545.5 410.546 1304.67C522.85 1063.83 810.155 932.144 1184.24 914.173C1558.28 896.205 2018.85 991.953 2477.27 1205.72Z" stroke="#AAE9CA" stroke-opacity="0.4" stroke-width="1.59588"/>
<path d="M2947.46 2477.24C2733.69 2935.66 2442.42 3305.06 2144.34 3531.72C1846.22 3758.41 1541.49 3842.21 1300.65 3729.91C1059.81 3617.61 928.128 3330.3 910.157 2956.22C892.189 2582.17 987.937 2121.6 1201.7 1663.18C1415.47 1204.76 1706.74 835.365 2004.82 608.7C2302.94 382.01 2607.67 298.21 2848.51 410.514C3089.35 522.818 3221.03 810.123 3239 1184.21C3256.97 1558.25 3161.22 2018.82 2947.46 2477.24Z" stroke="#AAE9CA" stroke-opacity="0.4" stroke-width="1.59588"/>
<path d="M2113.89 1118.96C2619.22 1141.02 3071.97 1268.76 3395.45 1457.41C3718.97 1646.09 3913.01 1895.56 3901.42 2161.04C3889.82 2426.52 3674.78 2658.12 3336.05 2817.88C2997.36 2977.62 2535.2 3065.42 2029.87 3043.35C1524.55 3021.29 1071.8 2893.55 748.318 2704.9C424.799 2516.23 230.762 2266.76 242.353 2001.28C253.944 1735.8 468.986 1504.19 807.718 1344.43C1146.41 1184.69 1608.57 1096.9 2113.89 1118.96Z" stroke="#AAE9CA" stroke-opacity="0.4" stroke-width="1.59588"/>
<path d="M3034.88 2113.77C3012.81 2619.1 2885.07 3071.85 2696.42 3395.33C2507.75 3718.85 2258.28 3912.88 1992.8 3901.29C1727.32 3889.7 1495.71 3674.66 1335.95 3335.93C1176.21 2997.23 1088.42 2535.08 1110.48 2029.75C1132.54 1524.42 1260.28 1071.68 1448.93 748.196C1637.61 424.677 1887.08 230.64 2152.56 242.231C2418.04 253.822 2649.65 468.864 2809.4 807.596C2969.14 1146.29 3056.94 1608.44 3034.88 2113.77Z" stroke="#AAE9CA" stroke-opacity="0.4" stroke-width="1.59588"/>
<path d="M1424.77 1372.81C1797.69 1031.09 2208.16 801.272 2570.29 705.932C2932.46 610.582 3246.07 649.778 3425.6 845.697C3605.12 1041.62 3616.84 1357.45 3490.28 1709.93C3363.75 2062.38 3099.03 2451.25 2726.11 2792.97C2353.19 3134.69 1942.72 3364.5 1580.59 3459.84C1218.42 3555.19 904.81 3516 725.283 3320.08C545.756 3124.16 534.041 2808.33 660.595 2455.84C787.134 2103.4 1051.85 1714.53 1424.77 1372.81Z" stroke="#AAE9CA" stroke-opacity="0.4" stroke-width="1.59588"/>
<path d="M2779.15 1421.55C3120.87 1794.47 3350.68 2204.94 3446.02 2567.07C3541.37 2929.25 3502.17 3242.85 3306.26 3422.38C3110.34 3601.91 2794.51 3613.62 2442.02 3487.07C2089.57 3360.53 1700.7 3095.82 1358.98 2722.89C1017.26 2349.97 787.449 1939.51 692.109 1577.37C596.759 1215.2 635.955 901.593 831.874 722.066C1027.79 542.539 1343.62 530.825 1696.11 657.378C2048.55 783.917 2437.43 1048.63 2779.15 1421.55Z" stroke="#AAE9CA" stroke-opacity="0.4" stroke-width="1.59588"/>
</svg>
